<?xml version="1.0" standalone="no"?>
<!DOCTYPE svg PUBLIC "-//W3C//DTD SVG 20010904//EN"
 "http://www.w3.org/TR/2001/REC-SVG-20010904/DTD/svg10.dtd">
<svg version="1.0" xmlns="http://www.w3.org/2000/svg"
 width="394.000000pt" height="200.000000pt" viewBox="0 0 394.000000 200.000000"
 preserveAspectRatio="xMidYMid meet">

<g transform="translate(0.000000,200.000000) scale(0.100000,-0.100000)"
fill="#000000" stroke="none">
<path d="M1907 1758 c-14 -13 -192 -203 -397 -423 -205 -220 -405 -433 -444
-473 -63 -65 -68 -73 -45 -70 20 2 119 101 404 403 362 383 380 400 417 403
123 10 475 -247 960 -699 64 -60 124 -109 133 -109 10 0 -143 163 -362 388
-209 213 -426 435 -484 495 -114 117 -136 127 -182 85z m327 -265 c326 -332
363 -374 226 -258 -135 114 -320 252 -412 307 -40 24 -107 54 -149 68 l-77 25
59 63 c33 34 66 62 75 62 9 0 134 -120 278 -267z"/>
<path d="M1520 1155 c-201 -201 -358 -365 -350 -365 15 0 730 708 730 723 0 4
-3 7 -8 7 -4 0 -171 -164 -372 -365z"/>
<path d="M1680 1125 c-184 -184 -328 -335 -320 -335 8 0 166 151 350 335 184
184 328 335 320 335 -8 0 -166 -151 -350 -335z"/>
<path d="M1820 1095 c-168 -168 -298 -305 -290 -305 8 0 152 137 320 305 168
168 298 305 290 305 -8 0 -152 -137 -320 -305z"/>
<path d="M2924 676 c-43 -19 -71 -58 -78 -110 -20 -129 76 -215 190 -171 55
21 77 59 77 135 0 63 -17 105 -54 132 -34 25 -96 32 -135 14z m101 -59 c72
-61 22 -201 -65 -182 -65 14 -82 134 -25 182 33 29 57 29 90 0z"/>
<path d="M146 671 c-9 -14 -96 -261 -96 -272 0 -5 12 -9 26 -9 19 0 28 7 37
30 11 28 15 30 65 30 50 0 54 -2 63 -30 9 -24 17 -30 40 -30 17 0 29 5 28 13
0 6 -22 70 -47 142 -46 127 -48 130 -79 133 -17 2 -34 -1 -37 -7z m54 -116 c7
-25 10 -48 7 -51 -3 -3 -18 -4 -34 -2 l-29 3 14 48 c7 26 17 47 21 47 5 0 14
-20 21 -45z"/>
<path d="M340 534 l0 -145 28 3 c25 3 27 7 30 56 l3 52 49 0 c81 0 120 51 96
128 -11 35 -56 52 -136 52 l-70 0 0 -146z m144 90 c10 -4 16 -18 16 -35 0 -32
-27 -49 -76 -49 -22 0 -24 4 -24 45 0 45 0 45 34 45 19 0 41 -3 50 -6z"/>
<path d="M615 663 c-12 -32 -95 -265 -95 -269 0 -2 13 -4 29 -4 23 0 31 6 40
30 9 28 13 30 65 30 51 0 55 -2 65 -30 7 -23 16 -30 35 -30 16 0 26 6 26 14 0
8 -21 73 -46 145 l-46 131 -33 0 c-22 0 -35 -6 -40 -17z m69 -140 c7 -21 4
-23 -28 -23 -41 0 -41 0 -19 65 l16 49 12 -34 c7 -19 15 -45 19 -57z"/>
<path d="M930 535 l0 -145 30 0 30 0 0 145 0 145 -30 0 -30 0 0 -145z"/>
<path d="M1020 535 l0 -146 28 3 27 3 0 88 c0 48 3 87 6 87 4 0 32 -40 63 -90
47 -73 62 -90 82 -90 l24 0 0 145 0 145 -25 0 c-24 0 -24 -2 -27 -91 l-3 -91
-55 88 c-49 79 -59 89 -87 92 l-33 3 0 -146z"/>
<path d="M1280 655 c0 -22 4 -25 40 -25 l39 0 3 -117 3 -118 28 -3 27 -3 0
120 0 121 45 0 c41 0 45 2 45 25 l0 25 -115 0 -115 0 0 -25z"/>
<path d="M1534 667 c-2 -7 -3 -71 -2 -143 l3 -129 108 -3 107 -3 0 26 c0 25
-1 25 -80 25 l-80 0 0 40 0 40 70 0 c68 0 70 1 70 25 0 24 -2 25 -70 25 l-70
0 0 30 0 30 75 0 c73 0 75 1 75 25 l0 25 -100 0 c-74 0 -102 -4 -106 -13z"/>
<path d="M1772 538 l3 -143 27 -3 c26 -3 27 -2 30 55 3 54 5 58 29 61 14 2 37
-2 52 -7 24 -10 27 -15 27 -61 0 -49 1 -50 30 -50 30 0 30 1 30 54 0 36 -5 60
-16 70 -14 15 -14 17 0 32 24 23 21 87 -5 110 -17 15 -40 20 -115 22 l-95 4 3
-144z m172 70 c19 -31 -4 -53 -63 -56 l-51 -3 0 41 0 41 51 -3 c36 -2 55 -8
63 -20z"/>
<path d="M2030 536 l0 -146 25 0 c25 0 25 1 25 91 0 54 4 89 10 87 5 -1 34
-41 63 -88 43 -67 60 -86 81 -88 l26 -3 0 145 0 146 -25 0 c-24 0 -24 -2 -27
-91 l-3 -92 -55 89 c-49 79 -59 89 -88 92 l-32 3 0 -145z"/>
<path d="M2385 668 c-31 -87 -95 -270 -95 -274 0 -2 13 -4 29 -4 23 0 31 6 40
30 9 28 13 30 65 30 51 0 55 -2 65 -30 7 -23 16 -30 35 -30 15 0 26 6 26 13 0
6 -21 72 -46 145 l-47 132 -34 0 c-18 0 -36 -6 -38 -12z m69 -145 c7 -21 4
-23 -28 -23 -20 0 -36 4 -36 9 0 7 12 48 27 91 5 14 15 -7 37 -77z"/>
<path d="M2500 655 c0 -23 4 -25 45 -25 l45 0 0 -120 0 -120 25 0 24 0 3 118
3 117 43 3 c37 3 42 6 42 28 l0 24 -115 0 -115 0 0 -25z"/>
<path d="M2760 535 l0 -145 25 0 25 0 0 145 0 145 -25 0 -25 0 0 -145z"/>
<path d="M3150 535 l0 -145 25 0 c25 0 25 0 25 98 l0 97 63 -97 c54 -85 66
-98 90 -98 l27 0 0 145 0 145 -30 0 -30 0 0 -92 0 -93 -56 93 c-50 82 -60 92
-85 92 l-29 0 0 -145z"/>
<path d="M3456 548 c-25 -73 -46 -139 -46 -145 0 -7 11 -13 26 -13 19 0 28 7
36 30 10 30 12 31 66 28 51 -3 57 -5 62 -28 5 -19 13 -26 39 -28 38 -4 41 -20
-24 163 l-43 120 -34 3 -35 3 -47 -133z m110 -22 c6 -25 4 -26 -31 -26 -28 0
-36 4 -32 14 3 8 11 33 18 57 l13 42 13 -30 c6 -17 15 -42 19 -57z"/>
<path d="M3700 535 l0 -146 98 3 c91 3 97 4 100 25 3 21 -1 22 -70 25 l-73 3
-3 118 -3 117 -24 0 -25 0 0 -145z"/>
</g>
</svg>
